<svg xmlns="http://www.w3.org/2000/svg" version="1.1" xmlns:xlink="http://www.w3.org/1999/xlink" xmlns:svgjs="http://svgjs.dev/svgjs" width="2000" height="1999" viewBox="0 0 2000 1999"><g transform="matrix(1,0,0,1,-0.4314868804665366,-0.4312711370263287)"><svg viewBox="0 0 343 343" data-background-color="#ffffff" preserveAspectRatio="xMidYMid meet" height="1999" width="2000" xmlns="http://www.w3.org/2000/svg" xmlns:xlink="http://www.w3.org/1999/xlink"><g id="tight-bounds" transform="matrix(1,0,0,1,0.07400000000001228,0.07400000000001228)"><svg viewBox="0 0 342.8515585177538 342.8515585177538" height="342.8515585177538" width="342.8515585177538"><g><svg></svg></g><g><svg viewBox="0 0 342.8515585177538 342.8515585177538" height="342.8515585177538" width="342.8515585177538"><g><path d="M0 171.426c0-94.676 76.75-171.426 171.426-171.426 94.676 0 171.426 76.75 171.426 171.426 0 94.676-76.75 171.426-171.426 171.426-94.676 0-171.426-76.75-171.426-171.426zM171.426 339.274c92.7 0 167.848-75.148 167.848-167.848 0-92.7-75.148-167.848-167.848-167.848-92.7 0-167.848 75.148-167.848 167.848 0 92.7 75.148 167.848 167.848 167.848z" data-fill-palette-color="tertiary" fill="#f1b814" stroke="transparent"></path><ellipse rx="164.56874808852183" ry="164.56874808852183" cx="171.4257792588769" cy="171.4257792588769" fill="#f1b814" stroke="transparent" stroke-width="0" fill-opacity="1" data-fill-palette-color="tertiary"></ellipse></g><g transform="matrix(1,0,0,1,64.84655864529836,93.76967206734443)"><svg viewBox="0 0 213.15844122715708 155.31221438306494" height="155.31221438306494" width="213.15844122715708"><g><svg viewBox="0 0 213.15844122715708 155.31221438306494" height="155.31221438306494" width="213.15844122715708"><g><svg viewBox="0 0 213.15844122715708 155.31221438306494" height="155.31221438306494" width="213.15844122715708"><g transform="matrix(1,0,0,1,0,94.04146460444568)"><svg viewBox="0 0 213.15844122715708 61.27074977861926" height="61.27074977861926" width="213.15844122715708"><g id="textblocktransform"><svg viewBox="0 0 213.15844122715708 61.27074977861926" height="61.27074977861926" width="213.15844122715708" id="textblock"><g><svg viewBox="0 0 213.15844122715708 39.6706501736468" height="39.6706501736468" width="213.15844122715708"><g transform="matrix(1,0,0,1,0,0)"><svg width="213.15844122715708" viewBox="4.69 -36.74 200.69 37.35" height="39.6706501736468" data-palette-color="#bd1e51"><path d="M8.28 0L4.69 0 4.69-33.84 9.57-33.84 16.16-15.5Q16.8-13.72 17.4-11.95 17.99-10.18 18.6-8.4L18.6-8.4 18.8-8.4Q19.43-10.18 20-11.95 20.56-13.72 21.17-15.5L21.17-15.5 27.66-33.84 32.62-33.84 32.62 0 28.86 0 28.86-19.17Q28.86-21.36 29.03-24.24 29.2-27.12 29.37-29.37L29.37-29.37 29.15-29.37 26.49-21.39 20-3.44 17.21-3.44 10.72-21.39 8.03-29.37 7.81-29.37Q7.98-27.12 8.13-24.24 8.28-21.36 8.28-19.17L8.28-19.17 8.28 0ZM51.61 0.61L51.61 0.61Q48.31 0.61 45.62-0.95 42.92-2.51 41.32-5.44 39.72-8.37 39.72-12.45L39.72-12.45Q39.72-16.53 41.32-19.48 42.92-22.44 45.48-24.02 48.04-25.61 50.9-25.61L50.9-25.61Q55.61-25.61 58.2-22.46 60.79-19.31 60.79-13.89L60.79-13.89Q60.79-12.52 60.64-11.57L60.64-11.57 43.63-11.57Q43.82-7.5 46.12-5 48.41-2.51 52.07-2.51L52.07-2.51Q53.95-2.51 55.52-3.02 57.08-3.52 58.42-4.42L58.42-4.42 59.81-1.95Q58.18-0.83 56.2-0.11 54.22 0.61 51.61 0.61ZM43.58-14.43L43.58-14.43 57.3-14.43Q57.3-18.36 55.64-20.41 53.98-22.46 50.95-22.46L50.95-22.46Q48.24-22.46 46.1-20.36 43.97-18.26 43.58-14.43ZM75.51 0.61L75.51 0.61Q70.84 0.61 68.02-2.8 65.2-6.2 65.2-12.45L65.2-12.45Q65.2-16.5 66.73-19.46 68.26-22.41 70.73-24.01 73.21-25.61 76.07-25.61L76.07-25.61Q78.24-25.61 79.87-24.84 81.49-24.07 83.12-22.71L83.12-22.71 82.98-27 82.98-36.74 86.96-36.74 86.96 0 83.66 0 83.34-2.98 83.2-2.98Q81.71-1.51 79.76-0.45 77.8 0.61 75.51 0.61ZM76.39-2.71L76.39-2.71Q78.17-2.71 79.76-3.58 81.34-4.44 82.98-6.23L82.98-6.23 82.98-19.58Q81.32-21.04 79.8-21.68 78.29-22.31 76.7-22.31L76.7-22.31Q74.63-22.31 72.96-21.07 71.28-19.82 70.28-17.6 69.28-15.38 69.28-12.45L69.28-12.45Q69.28-7.89 71.14-5.3 72.99-2.71 76.39-2.71ZM99.92 0L95.92 0 95.92-33.84 105.39-33.84Q109.17-33.84 112.02-32.9 114.86-31.96 116.44-29.8 118.01-27.64 118.01-23.95L118.01-23.95Q118.01-18.65 114.58-16.13 111.15-13.6 105.58-13.6L105.58-13.6 99.92-13.6 99.92 0ZM99.92-30.54L99.92-16.85 105.02-16.85Q109.59-16.85 111.8-18.54 114.01-20.24 114.01-23.95L114.01-23.95Q114.01-27.71 111.71-29.13 109.42-30.54 104.83-30.54L104.83-30.54 99.92-30.54ZM134.17 0.61L134.17 0.61Q131.14 0.61 128.52-0.93 125.89-2.47 124.29-5.38 122.7-8.3 122.7-12.45L122.7-12.45Q122.7-16.63 124.29-19.57 125.89-22.51 128.52-24.06 131.14-25.61 134.17-25.61L134.17-25.61Q137.25-25.61 139.88-24.06 142.52-22.51 144.12-19.57 145.72-16.63 145.72-12.45L145.72-12.45Q145.72-8.3 144.12-5.38 142.52-2.47 139.88-0.93 137.25 0.61 134.17 0.61ZM134.17-2.66L134.17-2.66Q137.51-2.66 139.59-5.36 141.66-8.06 141.66-12.45L141.66-12.45Q141.66-16.87 139.59-19.59 137.51-22.31 134.17-22.31L134.17-22.31Q132-22.31 130.31-21.07 128.63-19.82 127.69-17.61 126.75-15.41 126.75-12.45L126.75-12.45Q126.75-8.06 128.82-5.36 130.9-2.66 134.17-2.66ZM156.38 0L152.43 0 152.43-24.98 156.38-24.98 156.38 0ZM154.48-30.25L154.48-30.25Q153.28-30.25 152.55-30.99 151.82-31.74 151.82-32.98L151.82-32.98Q151.82-34.13 152.55-34.86 153.28-35.6 154.48-35.6L154.48-35.6Q155.68-35.6 156.41-34.86 157.14-34.13 157.14-32.98L157.14-32.98Q157.14-31.74 156.41-30.99 155.68-30.25 154.48-30.25ZM168.95 0L165 0 165-24.98 168.3-24.98 168.66-21.39 168.76-21.39Q170.57-23.17 172.59-24.39 174.62-25.61 177.21-25.61L177.21-25.61Q181.11-25.61 182.94-23.13 184.78-20.65 184.78-15.87L184.78-15.87 184.78 0 180.87 0 180.87-15.36Q180.87-18.92 179.72-20.56 178.57-22.19 175.96-22.19L175.96-22.19Q174.03-22.19 172.47-21.17 170.91-20.14 168.95-18.19L168.95-18.19 168.95 0ZM200.74 0.61L200.74 0.61Q196.81 0.61 195.27-1.66 193.73-3.93 193.73-7.62L193.73-7.62 193.73-21.73 190.02-21.73 190.02-24.78 193.95-24.98 194.42-33.08 197.71-33.08 197.71-24.98 204.57-24.98 204.57-21.73 197.71-21.73 197.71-7.52Q197.71-5.2 198.57-3.91 199.42-2.61 201.62-2.61L201.62-2.61Q202.28-2.61 203.01-2.75 203.74-2.88 204.5-3.22L204.5-3.22 205.38-0.44Q204.38 0 203.18 0.31 201.98 0.61 200.74 0.61Z" opacity="1" transform="matrix(1,0,0,1,0,0)" fill="#bd1e51" class="wordmark-text-0" data-fill-palette-color="quaternary" id="text-0"></path></svg></g></svg></g><g transform="matrix(1,0,0,1,0,49.035938584040636)"><svg viewBox="0 0 213.15844122715708 12.234811194578622" height="12.234811194578622" width="213.15844122715708"><g transform="matrix(1,0,0,1,0,0)"><svg width="213.15844122715708" viewBox="1.46 -38.38 686.88 39.43" height="12.234811194578622" data-palette-color="#bd1e51"><path d="M19.48-12.45L19.48-1.29Q19.48-0.56 19.18-0.28 18.87 0 18.14 0L18.14 0 12.94 0Q12.21 0 11.9-0.28 11.6-0.56 11.6-1.29L11.6-1.29 11.6-12.3 6.74-17.94Q5-19.97 3.82-21.58 2.64-23.19 2.05-24.91 1.46-26.64 1.46-28.96L1.46-28.96 1.46-31.1Q1.46-31.81 1.71-32.18L1.71-32.18Q2.81-33.79 4.79-35.57L4.79-35.57Q5.15-35.86 5.44-35.86L5.44-35.86Q5.74-35.86 6.05-35.57L6.05-35.57Q7.13-34.64 7.86-33.8 8.59-32.96 9.13-32.18L9.13-32.18Q9.38-31.79 9.38-31.1L9.38-31.1 9.38-28.98Q9.38-27.39 10.3-25.46 11.23-23.54 13.43-21.22L13.43-21.22 15.8-18.73 18.12-21.22Q20.09-23.34 21.13-25.27 22.17-27.2 22.17-28.96L22.17-28.96 22.17-31.1Q22.17-31.81 22.41-32.18L22.41-32.18Q23.46-33.76 25.39-35.57L25.39-35.57Q25.76-35.86 26-35.86L26-35.86Q26.29-35.86 26.61-35.57L26.61-35.57Q27.64-34.64 28.36-33.8 29.08-32.96 29.59-32.18L29.59-32.18Q29.83-31.79 29.83-31.1L29.83-31.1 29.83-28.96Q29.83-26.27 28.66-23.82 27.49-21.36 24.68-18.24L24.68-18.24 19.48-12.45ZM46.58 0.61L46.58 0.61Q40.43 0.61 36.84-2.66 33.25-5.93 33.25-12.4L33.25-12.4Q33.25-19.04 36.97-22.33 40.7-25.61 46.92-25.61L46.92-25.61Q52.93-25.61 56.54-22.38 60.15-19.14 60.15-12.84L60.15-12.84Q60.15-6.27 56.54-2.83 52.93 0.61 46.58 0.61ZM46.82-5.3L46.82-5.3Q49.51-5.3 50.88-6.97 52.24-8.64 52.24-12.7L52.24-12.7Q52.24-16.55 50.86-18.13 49.48-19.7 46.77-19.7L46.77-19.7Q44.16-19.7 42.66-18.01 41.16-16.31 41.16-12.5L41.16-12.5Q41.16-8.52 42.59-6.91 44.02-5.3 46.82-5.3ZM74.12 0.61L74.12 0.61Q65.42 0.61 65.42-9.91L65.42-9.91 65.4-22.31Q65.4-22.9 65.64-23.22L65.64-23.22Q66.67-24.56 68.65-26.12L68.65-26.12Q68.99-26.37 69.26-26.37L69.26-26.37Q69.58-26.37 69.87-26.12L69.87-26.12Q70.92-25.32 71.64-24.61 72.36-23.9 72.87-23.22L72.87-23.22Q73.12-22.9 73.12-22.31L73.12-22.31 73.12-10.6Q73.12-5.3 77.31-5.3L77.31-5.3Q79.39-5.3 80.63-6.75 81.88-8.2 81.88-10.69L81.88-10.69 81.88-22.31Q81.88-22.9 82.12-23.22L82.12-23.22Q83.15-24.56 85.13-26.12L85.13-26.12Q85.47-26.37 85.74-26.37L85.74-26.37Q86.05-26.37 86.35-26.12L86.35-26.12Q87.4-25.32 88.12-24.61 88.84-23.9 89.35-23.22L89.35-23.22Q89.59-22.9 89.59-22.31L89.59-22.31 89.59-1.12Q89.59-0.66 89.28-0.33 88.96 0 88.47 0L88.47 0 84.81 0Q84.42 0 84.11-0.11 83.81-0.22 83.54-0.54L83.54-0.54 82.03-2.49 81.86-2.49Q81.46-1.93 80.65-1.2 79.83-0.46 78.28 0.07 76.73 0.61 74.12 0.61ZM103.9-22.17L103.9-20.36 104-20.36Q105.83-25.44 110.59-25.44L110.59-25.44Q111.2-25.44 111.59-25.38 111.98-25.32 112.13-25.27L112.13-25.27Q112.49-25.15 112.49-24.71L112.49-24.71 112.49-18.82Q112.49-18.07 111.61-18.41L111.61-18.41Q111.32-18.53 110.77-18.66 110.22-18.8 109.25-18.8L109.25-18.8Q106.73-18.8 105.31-16.96 103.9-15.11 103.9-11.94L103.9-11.94 103.9-1.29Q103.9-0.56 103.59-0.28 103.29 0 102.56 0L102.56 0 97.53 0Q96.79 0 96.49-0.28 96.18-0.56 96.18-1.29L96.18-1.29 96.18-21.75Q96.18-22.34 96.43-22.66L96.43-22.66Q96.94-23.34 97.66-24.05 98.38-24.76 99.43-25.56L99.43-25.56Q99.63-25.71 99.82-25.76 100.02-25.81 100.16-25.81L100.16-25.81Q100.51-25.81 100.85-25.56L100.85-25.56Q102.87-23.97 103.68-22.85L103.68-22.85Q103.9-22.56 103.9-22.17L103.9-22.17ZM145.67-28.59L145.67-1.29Q145.67-0.56 145.36-0.28 145.06 0 144.32 0L144.32 0 139.12 0Q138.39 0 138.09-0.28 137.78-0.56 137.78-1.29L137.78-1.29 137.78-28.59 130.51-28.59Q129.92-28.59 129.63-28.78L129.63-28.78Q128.99-29.22 128.32-29.83 127.65-30.44 126.87-31.3L126.87-31.3Q126.62-31.62 126.62-31.81L126.62-31.81Q126.62-32.03 126.87-32.3L126.87-32.3Q127.65-33.15 128.32-33.76 128.99-34.38 129.63-34.81L129.63-34.81Q129.97-35.01 130.51-35.01L130.51-35.01 152.97-35.01Q153.55-35.01 153.84-34.81L153.84-34.81Q154.48-34.38 155.16-33.76 155.85-33.15 156.6-32.3L156.6-32.3Q156.85-31.98 156.85-31.79L156.85-31.79Q156.85-31.57 156.6-31.3L156.6-31.3Q155.85-30.44 155.16-29.83 154.48-29.22 153.84-28.78L153.84-28.78Q153.5-28.59 152.97-28.59L152.97-28.59 145.67-28.59ZM167.86-22.17L167.86-20.36 167.95-20.36Q169.78-25.44 174.55-25.44L174.55-25.44Q175.16-25.44 175.55-25.38 175.94-25.32 176.08-25.27L176.08-25.27Q176.45-25.15 176.45-24.71L176.45-24.71 176.45-18.82Q176.45-18.07 175.57-18.41L175.57-18.41Q175.28-18.53 174.73-18.66 174.18-18.8 173.2-18.8L173.2-18.8Q170.69-18.8 169.27-16.96 167.86-15.11 167.86-11.94L167.86-11.94 167.86-1.29Q167.86-0.56 167.55-0.28 167.25 0 166.51 0L166.51 0 161.48 0Q160.75 0 160.45-0.28 160.14-0.56 160.14-1.29L160.14-1.29 160.14-21.75Q160.14-22.34 160.39-22.66L160.39-22.66Q160.9-23.34 161.62-24.05 162.34-24.76 163.39-25.56L163.39-25.56Q163.58-25.71 163.78-25.76 163.97-25.81 164.12-25.81L164.12-25.81Q164.46-25.81 164.8-25.56L164.8-25.56Q166.83-23.97 167.64-22.85L167.64-22.85Q167.86-22.56 167.86-22.17L167.86-22.17ZM188.8 0.61L188.8 0.61Q180.11 0.61 180.11-9.91L180.11-9.91 180.09-22.31Q180.09-22.9 180.33-23.22L180.33-23.22Q181.35-24.56 183.33-26.12L183.33-26.12Q183.67-26.37 183.94-26.37L183.94-26.37Q184.26-26.37 184.55-26.12L184.55-26.12Q185.6-25.32 186.32-24.61 187.04-23.9 187.56-23.22L187.56-23.22Q187.8-22.9 187.8-22.31L187.8-22.31 187.8-10.6Q187.8-5.3 192-5.3L192-5.3Q194.07-5.3 195.32-6.75 196.56-8.2 196.56-10.69L196.56-10.69 196.56-22.31Q196.56-22.9 196.81-23.22L196.81-23.22Q197.83-24.56 199.81-26.12L199.81-26.12Q200.15-26.37 200.42-26.37L200.42-26.37Q200.74-26.37 201.03-26.12L201.03-26.12Q202.08-25.32 202.8-24.61 203.52-23.9 204.04-23.22L204.04-23.22Q204.28-22.9 204.28-22.31L204.28-22.31 204.28-1.12Q204.28-0.66 203.96-0.33 203.64 0 203.16 0L203.16 0 199.49 0Q199.1 0 198.8-0.11 198.49-0.22 198.22-0.54L198.22-0.54 196.71-2.49 196.54-2.49Q196.15-1.93 195.33-1.2 194.51-0.46 192.96 0.07 191.41 0.61 188.8 0.61ZM217.83 0.61L217.83 0.61Q215.21 0.61 213.49 0.17 211.77-0.27 210.73-0.89 209.7-1.51 209.11-2.03L209.11-2.03Q208.67-2.44 209.01-2.95L209.01-2.95 211.5-6.64Q212.04-7.42 212.72-6.74L212.72-6.74Q213.43-6.05 214.64-5.41 215.85-4.76 217.66-4.76L217.66-4.76Q219.27-4.76 220.3-5.31 221.34-5.86 221.34-6.91L221.34-6.91Q221.34-7.64 220.88-8.11 220.41-8.57 219.24-9.06 218.07-9.55 215.97-10.3L215.97-10.3Q212.87-11.43 211.28-13.01 209.7-14.6 209.7-17.65L209.7-17.65Q209.7-20.46 211.25-22.22 212.8-23.97 215.23-24.79 217.66-25.61 220.29-25.61L220.29-25.61Q223.64-25.61 224.99-24.99 226.35-24.37 226.74-24.02L226.74-24.02Q227.1-23.71 227.25-23.29L227.25-23.29Q227.57-22.34 227.74-20.78L227.74-20.78Q227.84-19.87 227.27-19.58L227.27-19.58Q226.98-19.41 226.35-19.21 225.71-19.02 225.08-18.87 224.44-18.73 224.13-18.73L224.13-18.73Q224.03-18.73 223.92-18.79 223.81-18.85 223.54-19.09L223.54-19.09Q223.22-19.41 222.45-19.82 221.68-20.24 220.34-20.24L220.34-20.24Q219.02-20.24 218.13-19.81 217.24-19.38 217.24-18.31L217.24-18.31Q217.24-17.14 218.38-16.55 219.51-15.97 222.12-15.04L222.12-15.04Q224.17-14.33 225.7-13.49 227.23-12.65 228.06-11.29 228.89-9.94 228.89-7.64L228.89-7.64Q228.89-4.66 227.26-2.84 225.64-1.03 223.11-0.21 220.59 0.61 217.83 0.61ZM243.53 0.61L243.53 0.61Q235.38 0.61 235.38-7.86L235.38-7.86 235.38-19.31 232.62-19.31Q231.89-19.31 231.61-19.62 231.33-19.92 231.33-20.65L231.33-20.65 231.33-23.66Q231.33-24.39 231.61-24.69 231.89-25 232.62-25L232.62-25 235.38-25 235.38-28.93Q235.38-29.52 235.62-29.83L235.62-29.83Q236.65-31.18 238.62-32.74L238.62-32.74Q238.97-32.98 239.24-32.98L239.24-32.98Q239.53-32.98 239.82-32.74L239.82-32.74Q240.87-31.93 241.59-31.23 242.31-30.52 242.82-29.83L242.82-29.83Q243.07-29.52 243.07-28.93L243.07-28.93 243.07-25 247.39-25Q248.12-25 248.4-24.69 248.68-24.39 248.68-23.66L248.68-23.66 248.68-20.65Q248.68-19.92 248.4-19.62 248.12-19.31 247.39-19.31L247.39-19.31 243.07-19.31 243.07-9.2Q243.07-5.3 245.9-5.3L245.9-5.3Q246.34-5.3 246.71-5.38 247.07-5.47 247.34-5.57L247.34-5.57Q247.85-5.76 248.06-5.71 248.27-5.66 248.44-5.18L248.44-5.18 249.86-1.39Q250.08-0.78 249.56-0.51L249.56-0.51Q249.2-0.34 247.79 0.13 246.39 0.61 243.53 0.61ZM266.19 0.61L266.19 0.61Q262.06 0.61 259.01-0.72 255.96-2.05 254.27-4.86 252.59-7.67 252.59-12.11L252.59-12.11Q252.59-18.77 256.01-22.19 259.42-25.61 265.09-25.61L265.09-25.61Q268.77-25.61 271.33-24.29 273.88-22.97 275.21-20.65 276.54-18.33 276.54-15.36L276.54-15.36Q276.54-12.45 275.05-11.3 273.56-10.16 270.7-10.16L270.7-10.16 260.23-10.16Q260.42-7.64 262.07-6.32 263.72-5 266.55-5L266.55-5Q268.8-5 270.15-5.68 271.51-6.35 272.05-6.74L272.05-6.74Q272.51-7.08 273.1-7.06L273.1-7.06Q273.56-7.06 274.43-6.87 275.29-6.69 276.15-6.2L276.15-6.2Q276.76-5.88 276.76-5.32L276.76-5.32Q276.76-5 276.64-4.42L276.64-4.42Q276.56-4.08 276.39-3.43 276.22-2.78 275.95-2.22L275.95-2.22Q275.81-1.95 275.49-1.71L275.49-1.71Q275-1.37 273.91-0.81 272.83-0.24 270.95 0.18 269.07 0.61 266.19 0.61ZM260.18-15.16L260.18-15.16 268.14-15.16Q269.38-15.16 269.38-16.31L269.38-16.31Q269.38-18.04 268.3-19.23 267.21-20.41 265.04-20.41L265.04-20.41Q262.67-20.41 261.56-18.9 260.45-17.38 260.18-15.16ZM290.74 0.61L290.74 0.61Q287.5 0.61 285.21-0.99 282.93-2.59 281.75-5.41 280.56-8.23 280.56-11.91L280.56-11.91Q280.56-16.77 282.28-19.79 284.01-22.8 287.14-24.22 290.28-25.63 294.55-25.63L294.55-25.63Q296.02-25.63 296.98-25.49 297.95-25.34 298.36-25.22L298.36-25.22 298.36-34.33Q298.36-34.91 298.61-35.23L298.61-35.23Q299.63-36.57 301.61-38.13L301.61-38.13Q301.95-38.38 302.22-38.38L302.22-38.38Q302.54-38.38 302.83-38.13L302.83-38.13Q303.88-37.33 304.6-36.62 305.32-35.91 305.83-35.23L305.83-35.23Q306.08-34.91 306.08-34.33L306.08-34.33 306.08-1.12Q306.08-0.66 305.76-0.33 305.44 0 304.95 0L304.95 0 301.32 0Q300.92 0 300.62-0.11 300.31-0.22 300.05-0.54L300.05-0.54 298.53-2.49 298.36-2.49Q298.04-2 297.23-1.26 296.41-0.51 294.86 0.05 293.31 0.61 290.74 0.61ZM293.11-5.64L293.11-5.64Q295.31-5.64 296.57-6.47 297.82-7.3 298.36-8.57L298.36-8.57 298.36-18.8Q297.97-19.04 297.07-19.38 296.16-19.73 294.53-19.73L294.53-19.73Q291.5-19.73 289.99-17.75 288.47-15.77 288.47-12.43L288.47-12.43Q288.47-8.96 289.74-7.3 291.01-5.64 293.11-5.64ZM349.45-21.04L349.45-31.1Q349.45-31.81 349.7-32.18L349.7-32.18Q350.8-33.79 352.78-35.57L352.78-35.57Q353.14-35.86 353.41-35.86L353.41-35.86Q353.7-35.86 354.02-35.57L354.02-35.57Q355.09-34.64 355.83-33.8 356.56-32.96 357.1-32.18L357.1-32.18Q357.34-31.79 357.34-31.1L357.34-31.1 357.34-1.29Q357.34-0.56 357.04-0.28 356.73 0 356 0L356 0 350.8 0Q350.07 0 349.76-0.28 349.45-0.56 349.45-1.29L349.45-1.29 349.45-14.26 334.95-14.26 334.95-1.29Q334.95-0.56 334.65-0.28 334.34 0 333.61 0L333.61 0 328.41 0Q327.68 0 327.37-0.28 327.07-0.56 327.07-1.29L327.07-1.29 327.07-33.72Q327.07-34.45 327.37-34.73 327.68-35.01 328.41-35.01L328.41-35.01 333.61-35.01Q334.34-35.01 334.65-34.73 334.95-34.45 334.95-33.72L334.95-33.72 334.95-21.04 349.45-21.04ZM376.8 0.61L376.8 0.61Q372.67 0.61 369.62-0.72 366.57-2.05 364.88-4.86 363.2-7.67 363.2-12.11L363.2-12.11Q363.2-18.77 366.62-22.19 370.03-25.61 375.7-25.61L375.7-25.61Q379.38-25.61 381.94-24.29 384.49-22.97 385.82-20.65 387.15-18.33 387.15-15.36L387.15-15.36Q387.15-12.45 385.66-11.3 384.17-10.16 381.31-10.16L381.31-10.16 370.84-10.16Q371.03-7.64 372.68-6.32 374.33-5 377.16-5L377.16-5Q379.41-5 380.76-5.68 382.12-6.35 382.66-6.74L382.66-6.74Q383.12-7.08 383.71-7.06L383.71-7.06Q384.17-7.06 385.04-6.87 385.9-6.69 386.76-6.2L386.76-6.2Q387.37-5.88 387.37-5.32L387.37-5.32Q387.37-5 387.25-4.42L387.25-4.42Q387.17-4.08 387-3.43 386.83-2.78 386.56-2.22L386.56-2.22Q386.42-1.95 386.1-1.71L386.1-1.71Q385.61-1.37 384.52-0.81 383.44-0.24 381.56 0.18 379.68 0.61 376.8 0.61ZM370.79-15.16L370.79-15.16 378.75-15.16Q379.99-15.16 379.99-16.31L379.99-16.31Q379.99-18.04 378.91-19.23 377.82-20.41 375.65-20.41L375.65-20.41Q373.28-20.41 372.17-18.9 371.06-17.38 370.79-15.16ZM398.99 0.61L398.99 0.61Q395.4 0.61 393.29-1.4 391.17-3.42 391.17-6.96L391.17-6.96Q391.17-8.79 391.84-10.36 392.52-11.94 394.19-13.15 395.86-14.36 398.88-15.09 401.89-15.82 406.58-15.94L406.58-15.94Q406.58-18.16 405.47-19.14 404.36-20.12 402.14-20.12L402.14-20.12Q400.13-20.12 398.86-19.43 397.59-18.75 397.28-18.51L397.28-18.51Q396.94-18.21 396.45-18.29L396.45-18.29Q395.79-18.38 395.04-18.63 394.3-18.87 393.44-19.19L393.44-19.19Q393.32-19.24 393.18-19.35 393.03-19.46 393-19.68L393-19.68Q393-19.8 393.03-19.98 393.05-20.17 393.15-20.65L393.15-20.65Q393.25-21.14 393.44-21.86 393.64-22.58 393.81-22.97L393.81-22.97Q394.03-23.39 394.54-23.75L394.54-23.75Q394.96-24.1 397.06-24.85 399.16-25.61 403.14-25.61L403.14-25.61Q414.1-25.61 414.1-14.94L414.1-14.94 414.1-1.12Q414.1-0.66 413.84-0.33 413.59 0 412.98 0L412.98 0 409.31 0Q408.92 0 408.62-0.11 408.31-0.22 408.04-0.54L408.04-0.54 406.53-2.49 406.36-2.49Q405.24-0.85 403.34-0.12 401.45 0.61 398.99 0.61ZM401.67-5.05L401.67-5.05Q403.92-5.05 405.07-6.2 406.21-7.35 406.53-8.57L406.53-8.57 406.53-11.28Q403.14-11.28 401.44-10.75 399.74-10.23 399.18-9.39 398.62-8.54 398.62-7.57L398.62-7.57Q398.62-6.15 399.5-5.6 400.38-5.05 401.67-5.05ZM428.99-1.83L423.89 0.51Q423.37 0.73 423.15 0.73L423.15 0.73Q422.93 0.73 422.69 0.56L422.69 0.56Q422.13 0.17 421.41-1.35 420.69-2.88 420.69-6.05L420.69-6.05 420.69-34.33Q420.69-34.91 420.93-35.23L420.93-35.23Q421.96-36.57 423.93-38.13L423.93-38.13Q424.28-38.38 424.54-38.38L424.54-38.38Q424.86-38.38 425.16-38.13L425.16-38.13Q426.21-37.33 426.93-36.62 427.65-35.91 428.16-35.23L428.16-35.23Q428.4-34.91 428.4-34.33L428.4-34.33 428.4-7.54Q428.4-5.93 428.67-4.8 428.94-3.66 429.31-2.98L429.31-2.98Q429.72-2.17 428.99-1.83L428.99-1.83ZM444.98 0.61L444.98 0.61Q436.82 0.61 436.82-7.86L436.82-7.86 436.82-19.31 434.06-19.31Q433.33-19.31 433.05-19.62 432.77-19.92 432.77-20.65L432.77-20.65 432.77-23.66Q432.77-24.39 433.05-24.69 433.33-25 434.06-25L434.06-25 436.82-25 436.82-28.93Q436.82-29.52 437.07-29.83L437.07-29.83Q438.09-31.18 440.07-32.74L440.07-32.74Q440.41-32.98 440.68-32.98L440.68-32.98Q440.97-32.98 441.27-32.74L441.27-32.74Q442.32-31.93 443.04-31.23 443.76-30.52 444.27-29.83L444.27-29.83Q444.51-29.52 444.51-28.93L444.51-28.93 444.51-25 448.83-25Q449.57-25 449.85-24.69 450.13-24.39 450.13-23.66L450.13-23.66 450.13-20.65Q450.13-19.92 449.85-19.62 449.57-19.31 448.83-19.31L448.83-19.31 444.51-19.31 444.51-9.2Q444.51-5.3 447.35-5.3L447.35-5.3Q447.78-5.3 448.15-5.38 448.52-5.47 448.79-5.57L448.79-5.57Q449.3-5.76 449.51-5.71 449.71-5.66 449.88-5.18L449.88-5.18 451.3-1.39Q451.52-0.78 451.01-0.51L451.01-0.51Q450.64-0.34 449.24 0.13 447.83 0.61 444.98 0.61ZM463.09-16.46L463.09-1.29Q463.09-0.56 462.78-0.28 462.48 0 461.75 0L461.75 0 456.72 0Q455.99 0 455.68-0.28 455.37-0.56 455.37-1.29L455.37-1.29 455.37-34.33Q455.37-34.91 455.62-35.23L455.62-35.23Q456.64-36.57 458.62-38.13L458.62-38.13Q458.96-38.38 459.23-38.38L459.23-38.38Q459.55-38.38 459.84-38.13L459.84-38.13Q460.89-37.33 461.61-36.62 462.33-35.91 462.85-35.23L462.85-35.23Q463.09-34.91 463.09-34.33L463.09-34.33 463.09-22.49 463.19-22.49Q463.72-23.19 464.58-23.91 465.43-24.63 466.86-25.12 468.29-25.61 470.51-25.61L470.51-25.61Q472.76-25.61 474.83-24.68 476.91-23.75 478.23-21.56 479.54-19.36 479.54-15.55L479.54-15.55 479.54-1.29Q479.54-0.56 479.24-0.28 478.93 0 478.2 0L478.2 0 473.17 0Q472.44 0 472.14-0.28 471.83-0.56 471.83-1.29L471.83-1.29 471.83-14.21Q471.83-16.92 470.71-18.15 469.58-19.38 467.66-19.38L467.66-19.38Q465.75-19.38 464.7-18.55 463.65-17.72 463.09-16.46L463.09-16.46ZM513.79-11.69L513.79-11.69Q513.16-11.69 512.72-12.01L512.72-12.01Q512.25-12.33 511.62-12.92 510.99-13.5 510.2-14.36L510.2-14.36Q509.91-14.7 509.91-14.97L509.91-14.97Q509.91-15.23 510.2-15.58L510.2-15.58Q511.72-17.29 512.96-18.09L512.96-18.09Q513.26-18.29 513.79-18.29L513.79-18.29Q515.45-18.29 516.66-19.53 517.87-20.78 517.82-23.56L517.82-23.56Q517.8-26.56 516.34-27.76 514.89-28.96 512.38-28.96L512.38-28.96 511.2-28.96Q509.59-28.96 509.01-28.27 508.42-27.59 508.42-25.93L508.42-25.93 508.42-1.29Q508.42-0.56 508.12-0.28 507.81 0 507.08 0L507.08 0 501.88 0Q501.15 0 500.84-0.28 500.54-0.56 500.54-1.29L500.54-1.29 500.54-28.47Q500.54-30.91 500.99-32.34 501.44-33.76 502.75-34.39 504.05-35.01 506.57-35.01L506.57-35.01 512.38-35.01Q519.38-35.01 522.75-32.26 526.12-29.52 526.12-23.85L526.12-23.85Q526.12-19.6 524.35-16.92 522.58-14.23 519.76-12.96 516.94-11.69 513.79-11.69ZM537.35 0.61L537.35 0.61Q533.76 0.61 531.65-1.4 529.54-3.42 529.54-6.96L529.54-6.96Q529.54-8.79 530.21-10.36 530.88-11.94 532.55-13.15 534.22-14.36 537.24-15.09 540.26-15.82 544.94-15.94L544.94-15.94Q544.94-18.16 543.83-19.14 542.72-20.12 540.5-20.12L540.5-20.12Q538.5-20.12 537.23-19.43 535.96-18.75 535.64-18.51L535.64-18.51Q535.3-18.21 534.81-18.29L534.81-18.29Q534.15-18.38 533.41-18.63 532.66-18.87 531.81-19.19L531.81-19.19Q531.69-19.24 531.54-19.35 531.39-19.46 531.37-19.68L531.37-19.68Q531.37-19.8 531.39-19.98 531.42-20.17 531.51-20.65L531.51-20.65Q531.61-21.14 531.81-21.86 532-22.58 532.17-22.97L532.17-22.97Q532.39-23.39 532.91-23.75L532.91-23.75Q533.32-24.1 535.42-24.85 537.52-25.61 541.5-25.61L541.5-25.61Q552.46-25.61 552.46-14.94L552.46-14.94 552.46-1.12Q552.46-0.66 552.21-0.33 551.95 0 551.34 0L551.34 0 547.68 0Q547.29 0 546.98-0.11 546.68-0.22 546.41-0.54L546.41-0.54 544.89-2.49 544.72-2.49Q543.6-0.85 541.71-0.12 539.82 0.61 537.35 0.61ZM540.04-5.05L540.04-5.05Q542.28-5.05 543.43-6.2 544.58-7.35 544.89-8.57L544.89-8.57 544.89-11.28Q541.5-11.28 539.8-10.75 538.11-10.23 537.55-9.39 536.98-8.54 536.98-7.57L536.98-7.57Q536.98-6.15 537.86-5.6 538.74-5.05 540.04-5.05ZM566.77-22.17L566.77-20.36 566.86-20.36Q568.69-25.44 573.46-25.44L573.46-25.44Q574.07-25.44 574.46-25.38 574.85-25.32 574.99-25.27L574.99-25.27Q575.36-25.15 575.36-24.71L575.36-24.71 575.36-18.82Q575.36-18.07 574.48-18.41L574.48-18.41Q574.19-18.53 573.64-18.66 573.09-18.8 572.11-18.8L572.11-18.8Q569.6-18.8 568.18-16.96 566.77-15.11 566.77-11.94L566.77-11.94 566.77-1.29Q566.77-0.56 566.46-0.28 566.16 0 565.42 0L565.42 0 560.39 0Q559.66 0 559.36-0.28 559.05-0.56 559.05-1.29L559.05-1.29 559.05-21.75Q559.05-22.34 559.3-22.66L559.3-22.66Q559.81-23.34 560.53-24.05 561.25-24.76 562.3-25.56L562.3-25.56Q562.49-25.71 562.69-25.76 562.88-25.81 563.03-25.81L563.03-25.81Q563.37-25.81 563.71-25.56L563.71-25.56Q565.74-23.97 566.55-22.85L566.55-22.85Q566.77-22.56 566.77-22.17L566.77-22.17ZM588.88 0.61L588.88 0.61Q580.73 0.61 580.73-7.86L580.73-7.86 580.73-19.31 577.97-19.31Q577.24-19.31 576.96-19.62 576.68-19.92 576.68-20.65L576.68-20.65 576.68-23.66Q576.68-24.39 576.96-24.69 577.24-25 577.97-25L577.97-25 580.73-25 580.73-28.93Q580.73-29.52 580.97-29.83L580.97-29.83Q582-31.18 583.98-32.74L583.98-32.74Q584.32-32.98 584.59-32.98L584.59-32.98Q584.88-32.98 585.17-32.74L585.17-32.74Q586.22-31.93 586.94-31.23 587.66-30.52 588.17-29.83L588.17-29.83Q588.42-29.52 588.42-28.93L588.42-28.93 588.42-25 592.74-25Q593.47-25 593.75-24.69 594.03-24.39 594.03-23.66L594.03-23.66 594.03-20.65Q594.03-19.92 593.75-19.62 593.47-19.31 592.74-19.31L592.74-19.31 588.42-19.31 588.42-9.2Q588.42-5.3 591.25-5.3L591.25-5.3Q591.69-5.3 592.06-5.38 592.42-5.47 592.69-5.57L592.69-5.57Q593.2-5.76 593.41-5.71 593.62-5.66 593.79-5.18L593.79-5.18 595.21-1.39Q595.43-0.78 594.91-0.51L594.91-0.51Q594.55-0.34 593.14 0.13 591.74 0.61 588.88 0.61ZM623.45-15.55L623.45-15.55 623.45-1.29Q623.45-0.56 623.15-0.28 622.84 0 622.11 0L622.11 0 617.08 0Q616.35 0 616.04-0.28 615.74-0.56 615.74-1.29L615.74-1.29 615.74-14.28Q615.74-16.94 614.61-18.16 613.49-19.38 611.56-19.38L611.56-19.38Q609.63-19.38 608.59-18.55 607.56-17.72 607-16.46L607-16.46 607-1.29Q607-0.56 606.69-0.28 606.39 0 605.65 0L605.65 0 600.62 0Q599.89 0 599.59-0.28 599.28-0.56 599.28-1.29L599.28-1.29 599.28-21.75Q599.28-22.34 599.52-22.66L599.52-22.66Q600.04-23.34 600.76-24.05 601.48-24.76 602.53-25.56L602.53-25.56Q602.85-25.81 603.14-25.81L603.14-25.81Q603.41-25.81 603.75-25.56L603.75-25.56Q604.77-24.76 605.51-24.02 606.24-23.29 606.8-22.51L606.8-22.51 606.92-22.51Q607.34-23.05 608.17-23.77 609-24.49 610.5-25.05 612-25.61 614.34-25.61L614.34-25.61Q616.64-25.61 618.71-24.68 620.79-23.75 622.12-21.56 623.45-19.36 623.45-15.55ZM642.3 0.61L642.3 0.61Q638.17 0.61 635.12-0.72 632.07-2.05 630.38-4.86 628.7-7.67 628.7-12.11L628.7-12.11Q628.7-18.77 632.12-22.19 635.53-25.61 641.2-25.61L641.2-25.61Q644.88-25.61 647.44-24.29 649.99-22.97 651.32-20.65 652.65-18.33 652.65-15.36L652.65-15.36Q652.65-12.45 651.16-11.3 649.67-10.16 646.81-10.16L646.81-10.16 636.34-10.16Q636.53-7.64 638.18-6.32 639.83-5 642.66-5L642.66-5Q644.91-5 646.26-5.68 647.62-6.35 648.16-6.74L648.16-6.74Q648.62-7.08 649.21-7.06L649.21-7.06Q649.67-7.06 650.54-6.87 651.4-6.69 652.26-6.2L652.26-6.2Q652.87-5.88 652.87-5.32L652.87-5.32Q652.87-5 652.75-4.42L652.75-4.42Q652.67-4.08 652.5-3.43 652.33-2.78 652.06-2.22L652.06-2.22Q651.92-1.95 651.6-1.71L651.6-1.71Q651.11-1.37 650.02-0.81 648.94-0.24 647.06 0.18 645.18 0.61 642.3 0.61ZM636.29-15.16L636.29-15.16 644.25-15.16Q645.49-15.16 645.49-16.31L645.49-16.31Q645.49-18.04 644.41-19.23 643.32-20.41 641.15-20.41L641.15-20.41Q638.78-20.41 637.67-18.9 636.56-17.38 636.29-15.16ZM665.73-22.17L665.73-20.36 665.83-20.36Q667.66-25.44 672.42-25.44L672.42-25.44Q673.03-25.44 673.42-25.38 673.81-25.32 673.96-25.27L673.96-25.27Q674.32-25.15 674.32-24.71L674.32-24.71 674.32-18.82Q674.32-18.07 673.45-18.41L673.45-18.41Q673.15-18.53 672.6-18.66 672.05-18.8 671.08-18.8L671.08-18.8Q668.56-18.8 667.15-16.96 665.73-15.11 665.73-11.94L665.73-11.94 665.73-1.29Q665.73-0.56 665.43-0.28 665.12 0 664.39 0L664.39 0 659.36 0Q658.63 0 658.32-0.28 658.02-0.56 658.02-1.29L658.02-1.29 658.02-21.75Q658.02-22.34 658.26-22.66L658.26-22.66Q658.77-23.34 659.49-24.05 660.21-24.76 661.26-25.56L661.26-25.56Q661.46-25.71 661.65-25.76 661.85-25.81 662-25.81L662-25.81Q662.34-25.81 662.68-25.56L662.68-25.56Q664.71-23.97 665.51-22.85L665.51-22.85Q665.73-22.56 665.73-22.17L665.73-22.17ZM684.87-12.35L680.72-12.35Q679.67-12.35 679.62-13.53L679.62-13.53 678.69-33.81Q678.64-35.01 679.84-35.01L679.84-35.01 685.8-35.01Q686.99-35.01 686.94-33.81L686.94-33.81 685.97-13.53Q685.92-12.35 684.87-12.35L684.87-12.35ZM677.74-4.22L677.74-4.22Q677.74-4.54 677.95-4.8 678.16-5.05 678.5-5.47L678.5-5.47Q679.23-6.3 680.18-7.21 681.13-8.13 682.13-8.98L682.13-8.98Q682.74-9.47 683.04-9.47L683.04-9.47Q683.33-9.47 683.99-8.98L683.99-8.98Q686.04-7.2 687.58-5.47L687.58-5.47Q687.9-5.05 688.12-4.8 688.34-4.54 688.34-4.22L688.34-4.22Q688.34-3.88 688.1-3.61 687.87-3.34 687.55-2.91L687.55-2.91Q686.85-2.1 685.91-1.21 684.97-0.32 683.99 0.54L683.99 0.54Q683.38 1.05 683.04 1.05L683.04 1.05Q682.77 1.05 682.09 0.54L682.09 0.54Q681.04-0.32 680.13-1.22 679.23-2.12 678.5-2.98L678.5-2.98Q678.16-3.39 677.95-3.64 677.74-3.88 677.74-4.22Z" opacity="1" transform="matrix(1,0,0,1,0,0)" fill="#bd1e51" class="slogan-text-1" data-fill-palette-color="quaternary" id="text-1"></path></svg></g></svg></g></svg></g></svg></g><g transform="matrix(1,0,0,1,53.006353738060106,0)"><svg viewBox="0 0 107.14573375103687 84.67617619405183" height="84.67617619405183" width="107.14573375103687"><g><svg xmlns="http://www.w3.org/2000/svg" xmlns:xlink="http://www.w3.org/1999/xlink" version="1.1" x="0" y="0" viewBox="2.823 12.982 94.35400000000001 74.56700000000001" enable-background="new 0 0 100 100" xml:space="preserve" height="84.67617619405183" width="107.14573375103687" class="icon-icon-0" data-fill-palette-color="quaternary" id="icon-0"><path fill="#bd1e51" d="M49.997 87.549L13.178 59.009C6.609 54.122 2.823 46.657 2.823 38.552 2.823 24.452 14.295 12.982 28.396 12.982 37.246 12.982 45.36 17.555 49.997 24.902A25.56 25.56 0 0 1 71.611 12.982C85.709 12.982 97.177 24.453 97.177 38.552 97.177 46.663 93.391 54.128 86.789 59.033zM28.396 16.981C16.5 16.981 6.823 26.657 6.823 38.551 6.823 45.379 10.021 51.674 15.596 55.822L49.996 82.487 84.371 55.845C89.979 51.678 93.177 45.383 93.177 38.55 93.177 26.656 83.502 16.98 71.611 16.98A21.57 21.57 0 0 0 51.831 29.963L49.997 34.179 48.163 29.963C44.733 22.078 36.974 16.981 28.396 16.981" data-fill-palette-color="quaternary"></path><polygon points="41.217,50.026 40.455,52.201 27.673,52.201 27.673,48.643 37.931,48.643 40.816,40.402 48.315,57.197   56.207,32.901 62.359,49.532 72.329,49.532 72.329,53.09 59.881,53.09 56.426,43.747 48.84,67.1 " fill="#bd1e51" data-fill-palette-color="quaternary"></polygon></svg></g></svg></g><g></g></svg></g></svg></g></svg></g></svg></g><defs></defs></svg><rect width="342.8515585177538" height="342.8515585177538" fill="none" stroke="none" visibility="hidden"></rect></g></svg></g></svg>